<svg xmlns="http://www.w3.org/2000/svg" xmlns:xlink="http://www.w3.org/1999/xlink" viewBox="0 0 32 32" width="32" height="32" fill="current">
  <svg xmlns="http://www.w3.org/2000/svg" height="32" width="32" viewBox="0 0 24 24" fill="#fff" x="0" y="0" opacity="100%">
    <path d="M0 0h24v24H0z" fill="none"/>
    <path d="M16.53 11.06 15.47 10l-4.88 4.88-2.12-2.12-1.06 1.06L10.59 17l5.94-5.94zM19 3h-1V1h-2v2H8V1H6v2H5c-1.11 0-1.99.9-1.99 2L3 19a2 2 0 0 0 2 2h14c1.1 0 2-.9 2-2V5c0-1.1-.9-2-2-2zm0 16H5V8h14v11z"/>
  </svg>
  <defs>
    <filter id="filter_dshadow_10_0_2_0000001a" color-interpolation-filters="sRGB" filterUnits="userSpaceOnUse">
      <feFlood flood-opacity="0" result="bg-fix"/>
      <feColorMatrix in="SourceAlpha" type="matrix" values="0 0 0 0 0 0 0 0 0 0 0 0 0 0 0 0 0 0 127 0" result="alpha"/>
      <feOffset dx="0" dy="2"/>
      <feGaussianBlur stdDeviation="5"/>
      <feComposite in2="alpha" operator="out"/>
      <feColorMatrix type="matrix" values="0 0 0 0 0 0 0 0 0 0 0 0 0 0 0 0 0 0 0.1 0"/>
      <feBlend mode="normal" in2="bg-fix" result="bg-fix-filter_dshadow_10_0_2_0000001a"/>
      <feBlend in="SourceGraphic" in2="bg-fix-filter_dshadow_10_0_2_0000001a" result="shape"/>
    </filter>
  </defs>
</svg>